<svg width="309" height="132" viewBox="0 0 309 132" fill="none" xmlns="http://www.w3.org/2000/svg">
<path d="M0 68.5424C0 65.1492 2.75076 62.3984 6.144 62.3984H69.12C72.5132 62.3984 75.264 65.1492 75.264 68.5424V131.134H0V68.5424Z" fill="#E9F4FF"/>
<path d="M62.3281 6.144C62.3281 2.75077 65.0789 0 68.4721 0H131.448C134.841 0 137.592 2.75076 137.592 6.144V86.4H62.3281V6.144Z" fill="#E9F4FF"/>
<path d="M241.656 78.7202C241.656 75.3269 244.407 72.5762 247.8 72.5762H310.776C314.169 72.5762 316.92 75.3269 316.92 78.7202V130.944H241.656V78.7202Z" fill="#E9F4FF"/>
<path d="M195.96 38.5342C195.96 37.2908 196.71 36.17 197.859 35.6951L232.419 21.4126C233.17 21.1021 234.014 21.1021 234.766 21.4126L269.326 35.6951C270.475 36.17 271.224 37.2908 271.224 38.5342V130.944H195.96V38.5342Z" fill="#F96C44"/>
<path d="M45.4321 42.6245C45.4321 39.2312 48.1829 36.4805 51.5761 36.4805H114.552C117.945 36.4805 120.696 39.2312 120.696 42.6245V130.944H45.4321V42.6245Z" fill="#C4D5F5"/>
<path d="M120.696 61.4392C120.696 59.7426 122.072 58.3672 123.768 58.3672H192.888C194.585 58.3672 195.96 59.7426 195.96 61.4392V130.943H120.696V61.4392Z" fill="#1C7EC7"/>
<rect x="120.696" y="11.5195" width="75.264" height="70.272" rx="6.144" fill="#1C7EC7"/>
<rect x="53.8799" y="45.6953" width="26.88" height="12.672" rx="3.072" fill="#DAE4F9"/>
<rect x="53.8799" y="63.7441" width="26.88" height="12.672" rx="3.072" fill="#DAE4F9"/>
<rect x="53.8799" y="81.793" width="26.88" height="12.672" rx="3.072" fill="#DAE4F9"/>
<rect x="53.8799" y="99.8398" width="26.88" height="12.672" rx="3.072" fill="#DAE4F9"/>
<rect x="85.3682" y="45.6953" width="26.88" height="12.672" rx="3.072" fill="#DAE4F9"/>
<rect x="206.328" y="45.6953" width="54.528" height="12.672" rx="3.072" fill="#F88652"/>
<rect x="206.328" y="63.7441" width="54.528" height="12.672" rx="3.072" fill="#F88652"/>
<rect x="206.328" y="81.793" width="54.528" height="12.672" rx="3.072" fill="#F88652"/>
<rect x="206.328" y="99.8398" width="54.528" height="12.672" rx="3.072" fill="#F88652"/>
<rect x="85.3682" y="63.7441" width="26.88" height="12.672" rx="3.072" fill="#DAE4F9"/>
<rect x="85.3682" y="81.793" width="26.88" height="12.672" rx="3.072" fill="#DAE4F9"/>
<rect x="85.3682" y="99.8398" width="26.88" height="12.672" rx="3.072" fill="#DAE4F9"/>
<path d="M129.913 34.1761C129.913 29.9345 133.351 26.4961 137.593 26.4961C141.834 26.4961 145.273 29.9345 145.273 34.1761V43.3921C145.273 45.0887 143.897 46.4641 142.201 46.4641H132.985C131.288 46.4641 129.913 45.0887 129.913 43.3921V34.1761Z" fill="#2C93E0"/>
<path d="M129.913 60.2874C129.913 56.0459 133.351 52.6074 137.593 52.6074C141.834 52.6074 145.273 56.0459 145.273 60.2874V69.5034C145.273 71.2 143.897 72.5754 142.201 72.5754H132.985C131.288 72.5754 129.913 71.2 129.913 69.5034V60.2874Z" fill="#2C93E0"/>
<path d="M129.913 86.3987C129.913 82.1572 133.351 78.7188 137.593 78.7188C141.834 78.7188 145.273 82.1572 145.273 86.3987V95.6148C145.273 97.3114 143.897 98.6867 142.201 98.6867H132.985C131.288 98.6867 129.913 97.3114 129.913 95.6147V86.3987Z" fill="#2C93E0"/>
<path d="M150.648 34.1761C150.648 29.9345 154.086 26.4961 158.328 26.4961C162.569 26.4961 166.008 29.9345 166.008 34.1761V43.3921C166.008 45.0887 164.633 46.4641 162.936 46.4641H153.72C152.023 46.4641 150.648 45.0887 150.648 43.3921V34.1761Z" fill="#2C93E0"/>
<path d="M150.648 60.2874C150.648 56.0459 154.086 52.6074 158.328 52.6074C162.569 52.6074 166.008 56.0459 166.008 60.2874V69.5034C166.008 71.2 164.633 72.5754 162.936 72.5754H153.72C152.023 72.5754 150.648 71.2 150.648 69.5034V60.2874Z" fill="#2C93E0"/>
<path d="M150.648 86.3987C150.648 82.1572 154.086 78.7188 158.328 78.7188C162.569 78.7188 166.008 82.1572 166.008 86.3987V95.6148C166.008 97.3114 164.633 98.6867 162.936 98.6867H153.72C152.023 98.6867 150.648 97.3114 150.648 95.6147V86.3987Z" fill="#2C93E0"/>
<path d="M171.384 34.1761C171.384 29.9345 174.823 26.4961 179.064 26.4961C183.306 26.4961 186.744 29.9345 186.744 34.1761V43.3921C186.744 45.0887 185.369 46.4641 183.672 46.4641H174.456C172.76 46.4641 171.384 45.0887 171.384 43.3921V34.1761Z" fill="#2C93E0"/>
<path d="M171.384 60.2874C171.384 56.0459 174.822 52.6074 179.064 52.6074C183.305 52.6074 186.744 56.0459 186.744 60.2874V69.5034C186.744 71.2 185.368 72.5754 183.672 72.5754H174.456C172.759 72.5754 171.384 71.2 171.384 69.5034V60.2874Z" fill="#2C93E0"/>
<path d="M171.384 86.3987C171.384 82.1572 174.823 78.7188 179.064 78.7188C183.306 78.7188 186.744 82.1572 186.744 86.3987V95.6148C186.744 97.3114 185.369 98.6867 183.672 98.6867H174.456C172.76 98.6867 171.384 97.3114 171.384 95.6147V86.3987Z" fill="#2C93E0"/>
</svg>
