<svg width="261" height="170" viewBox="0 0 261 170" fill="none" xmlns="http://www.w3.org/2000/svg">
<circle cx="259.8" cy="155.401" r="18.6" fill="#242945"/>
<path d="M100.8 150H270.6C270.6 155.302 266.302 159.6 261 159.6H110.4C105.098 159.6 100.8 155.302 100.8 150Z" fill="#242945"/>
<path d="M30.6001 61.7996C30.6001 51.1958 39.1962 42.5996 49.8001 42.5996H90.0001V140.4C90.0001 145.702 85.702 150 80.4001 150H49.8001C39.1962 150 30.6001 141.403 30.6001 130.8V61.7996Z" fill="#E9F4FF"/>
<path d="M10.7998 94.2C10.7998 83.5961 19.3959 75 29.9998 75H60.5998V140.4C60.5998 145.702 56.3017 150 50.9998 150H29.9998C19.3959 150 10.7998 141.404 10.7998 130.8V94.2Z" fill="#E9F4FF"/>
<path d="M90 12C90 5.37258 95.3726 0 102 0H279.6C286.227 0 291.6 5.37258 291.6 12V140.4C291.6 145.702 287.302 150 282 150H99.6C94.2981 150 90 145.702 90 140.4V12Z" fill="#1B92FF"/>
<circle cx="53.9999" cy="155.401" r="18.6" fill="#242945"/>
<circle cx="148.8" cy="72.3602" r="19.2" fill="#F5FAFF"/>
<mask id="mask0_3343_33739" style="mask-type:alpha" maskUnits="userSpaceOnUse" x="148" y="53" width="20" height="44">
<rect width="19.2" height="43.68" transform="matrix(1 0 0 -1 148.8 96.8398)" fill="#D9D9D9"/>
</mask>
<g mask="url(#mask0_3343_33739)">
<path d="M129.6 72.3602C129.6 88.2002 148.8 96.8402 148.8 96.8402C148.8 96.8402 168 88.2002 168 72.3602C168 61.7563 159.404 53.1602 148.8 53.1602C138.196 53.1602 129.6 61.7563 129.6 72.3602Z" fill="#F5FAFF"/>
</g>
<rect x="153.639" y="65.0723" width="5.376" height="14.592" rx="2.688" fill="#4DA9FF"/>
<rect x="144.303" y="65.0996" width="5.376" height="14.592" rx="2.688" fill="#4DA9FF"/>
<rect opacity="0.8" x="147" y="63.9746" width="5.376" height="18.4929" rx="2.688" transform="rotate(45.4799 147 63.9746)" fill="#4DA9FF"/>
<rect opacity="0.8" x="160.068" y="69.6406" width="5.30213" height="10.4446" rx="2.65107" transform="rotate(45.4799 160.068 69.6406)" fill="#4DA9FF"/>
<rect opacity="0.8" x="156.336" y="63.9473" width="5.43795" height="18.4261" rx="2.71898" transform="rotate(45.4799 156.336 63.9473)" fill="#4DA9FF"/>
<path d="M217.159 75.6342C216.416 75.6086 215.801 75.5318 215.314 75.4037C214.853 75.25 214.482 75.0451 214.2 74.7889C213.918 74.5072 213.713 74.1614 213.585 73.7515C213.483 73.316 213.419 72.8037 213.393 72.2146C213.393 71.984 213.38 71.6126 213.355 71.1003C213.355 70.5624 213.355 69.9732 213.355 69.3328C213.355 68.6668 213.342 67.9752 213.316 67.2579C213.316 66.5407 213.316 65.8491 213.316 65.1831C213.316 64.5171 213.316 63.9279 213.316 63.4156C213.316 62.9033 213.316 62.5191 213.316 62.2629C213.316 61.3151 213.572 60.6107 214.085 60.1496C214.623 59.6629 215.276 59.4196 216.044 59.4196C216.864 59.4196 217.53 59.6629 218.042 60.1496C218.58 60.6107 218.849 61.3279 218.849 62.3013V63.7998C219.336 63.7998 219.912 63.7998 220.578 63.7998C221.244 63.7998 221.923 63.7998 222.615 63.7998C223.306 63.7998 223.985 63.7998 224.651 63.7998C225.317 63.7998 225.893 63.7998 226.38 63.7998V62.0708C226.38 61.1742 226.649 60.5082 227.187 60.0728C227.725 59.6373 228.391 59.4196 229.185 59.4196C229.953 59.4196 230.607 59.6245 231.145 60.0343C231.683 60.4442 231.952 61.0718 231.952 61.9171C231.952 62.2501 231.952 62.9033 231.952 63.8767C231.977 64.8245 231.99 65.8491 231.99 66.9506C231.99 68.052 231.99 69.1023 231.99 70.1013C231.99 71.0747 231.977 71.7535 231.952 72.1377C231.926 72.7269 231.849 73.2392 231.721 73.6747C231.593 74.0845 231.375 74.4303 231.068 74.7121C230.76 74.9682 230.338 75.1732 229.8 75.3269C229.262 75.4806 228.557 75.5702 227.687 75.5958C227.021 75.6471 226.239 75.6855 225.343 75.7111C224.472 75.7111 223.562 75.7239 222.615 75.7495C221.692 75.7495 220.757 75.7495 219.81 75.7495C218.862 75.7239 217.978 75.6855 217.159 75.6342ZM218.849 70.3318C218.875 70.7417 218.952 70.985 219.08 71.0619C219.208 71.1387 219.49 71.1899 219.925 71.2156C220.745 71.2412 221.616 71.254 222.538 71.254C223.46 71.254 224.292 71.2284 225.035 71.1771C225.317 71.1515 225.548 71.1387 225.727 71.1387C225.906 71.1131 226.047 71.0875 226.15 71.0619C226.252 71.0106 226.316 70.9338 226.342 70.8313C226.393 70.7032 226.419 70.5367 226.419 70.3318V67.988C225.932 67.988 225.355 67.988 224.689 67.988C224.023 67.9624 223.332 67.9496 222.615 67.9496C221.923 67.9496 221.244 67.9624 220.578 67.988C219.912 67.988 219.336 67.988 218.849 67.988V70.3318ZM223.729 84.1258C223.729 82.9731 223.934 81.9357 224.344 81.0135C224.779 80.0914 225.368 79.3101 226.111 78.6697C226.88 78.0293 227.802 77.5426 228.878 77.2096C229.953 76.8766 231.145 76.7101 232.451 76.7101C233.655 76.7101 234.756 76.8766 235.755 77.2096C236.78 77.5426 237.651 78.0293 238.368 78.6697C239.111 79.3101 239.687 80.0914 240.097 81.0135C240.507 81.9101 240.712 82.9475 240.712 84.1258C240.712 85.1761 240.52 86.1495 240.136 87.046C239.777 87.9425 239.239 88.7238 238.522 89.3898C237.805 90.0558 236.934 90.581 235.909 90.9652C234.91 91.3494 233.757 91.5415 232.451 91.5415C231.145 91.5415 229.953 91.3494 228.878 90.9652C227.827 90.581 226.918 90.0558 226.15 89.3898C225.381 88.7238 224.779 87.9425 224.344 87.046C223.934 86.1495 223.729 85.1761 223.729 84.1258ZM229.416 84.049C229.416 84.7918 229.685 85.4066 230.222 85.8933C230.76 86.3544 231.465 86.5849 232.336 86.5849C233.232 86.5849 233.95 86.3544 234.487 85.8933C235.051 85.4066 235.333 84.7918 235.333 84.049C235.333 83.2293 235.064 82.6017 234.526 82.1662C233.988 81.7051 233.258 81.4746 232.336 81.4746C231.465 81.4746 230.76 81.6923 230.222 82.1278C229.685 82.5377 229.416 83.178 229.416 84.049ZM237.292 61.725C237.241 60.6491 237.446 59.8422 237.907 59.3043C238.394 58.7408 239.111 58.459 240.059 58.459C240.93 58.459 241.634 58.7279 242.172 59.2659C242.736 59.7782 243.043 60.6491 243.094 61.8787C243.146 63.1851 243.171 64.3506 243.171 65.3752C243.197 66.3742 243.21 67.322 243.21 68.2185C243.21 69.0895 243.197 69.922 243.171 70.7161C243.171 71.5101 243.158 72.3298 243.133 73.1751C243.081 74.4047 242.813 75.3781 242.326 76.0953C241.839 76.8126 241.109 77.1712 240.136 77.1712C239.162 77.1712 238.445 76.8894 237.984 76.3259C237.549 75.7367 237.369 74.7889 237.446 73.4825C237.472 72.8165 237.484 72.0096 237.484 71.0619C237.51 70.1141 237.51 69.1151 237.484 68.0648C237.484 66.989 237.459 65.9003 237.408 64.7988C237.382 63.6974 237.344 62.6728 237.292 61.725Z" fill="#F5FAFF"/>
<path d="M195.682 91.3108C194.939 91.3108 194.235 91.0547 193.569 90.5424C192.929 90.0301 192.583 89.2744 192.532 88.2754C192.532 87.968 192.519 87.5966 192.493 87.1611C192.493 86.7257 192.48 86.2518 192.455 85.7395C192.455 85.2271 192.455 84.6892 192.455 84.1257C192.455 83.5621 192.455 82.9986 192.455 82.435C190.585 82.4094 188.766 82.371 186.999 82.3198C185.257 82.2685 183.681 82.1789 182.272 82.0508C181.094 81.9483 180.274 81.6666 179.813 81.2055C179.352 80.7188 179.147 80.104 179.199 79.3612C179.25 78.6183 179.493 78.0163 179.929 77.5553C180.39 77.0686 181.235 76.8508 182.465 76.9021C184.539 76.9789 186.691 77.043 188.92 77.0942C191.174 77.1198 193.415 77.1326 195.644 77.1326C197.898 77.1326 200.127 77.1198 202.329 77.0942C204.532 77.043 206.633 76.9661 208.631 76.8636C209.937 76.8124 210.847 77.0558 211.359 77.5937C211.897 78.106 212.166 78.7592 212.166 79.5533C212.166 80.2961 211.961 80.8725 211.551 81.2823C211.167 81.6666 210.488 81.9099 209.515 82.0124C208.388 82.1405 206.889 82.2429 205.019 82.3198C203.175 82.371 201.151 82.4094 198.948 82.435C198.923 83.2547 198.897 84.1001 198.871 84.971C198.871 85.8163 198.871 86.5848 198.871 87.2764C198.871 87.968 198.769 88.5572 198.564 89.0439C198.385 89.5562 198.141 89.9788 197.834 90.3118C197.552 90.6448 197.219 90.8882 196.835 91.0419C196.451 91.2212 196.066 91.3108 195.682 91.3108ZM182.618 69.3711C182.618 68.3977 182.618 67.5908 182.618 66.9504C182.618 66.31 182.618 65.7593 182.618 65.2982C182.644 64.8115 182.657 64.376 182.657 63.9918C182.682 63.6076 182.721 63.1721 182.772 62.6854C182.849 61.8401 183.118 61.2125 183.579 60.8027C184.04 60.3672 184.796 60.1367 185.846 60.111C187.46 60.0854 189.112 60.0598 190.802 60.0342C192.519 60.0086 194.222 59.9958 195.913 59.9958C197.603 59.9702 199.256 59.9702 200.869 59.9958C202.483 59.9958 204.007 60.0342 205.442 60.111C206.492 60.1623 207.248 60.3928 207.709 60.8027C208.17 61.2125 208.439 61.8401 208.516 62.6854C208.541 63.1721 208.567 63.6076 208.593 63.9918C208.618 64.376 208.631 64.8115 208.631 65.2982C208.657 65.7593 208.669 66.31 208.669 66.9504C208.669 67.5908 208.669 68.3977 208.669 69.3711C208.669 70.2932 208.605 71.0745 208.477 71.7149C208.375 72.3297 208.144 72.842 207.786 73.2518C207.427 73.6361 206.915 73.9307 206.249 74.1356C205.583 74.3405 204.686 74.4814 203.559 74.5582C202.586 74.6095 201.446 74.6479 200.139 74.6735C198.833 74.6991 197.463 74.7119 196.028 74.7119C194.594 74.7119 193.146 74.6991 191.686 74.6735C190.252 74.6479 188.933 74.6223 187.729 74.5967C186.602 74.5711 185.705 74.4558 185.039 74.2509C184.373 74.0459 183.861 73.7385 183.502 73.3287C183.143 72.8932 182.9 72.3553 182.772 71.7149C182.67 71.0745 182.618 70.2932 182.618 69.3711ZM188.42 65.8746C188.395 66.3612 188.382 66.7583 188.382 67.0657C188.407 67.3474 188.433 67.7317 188.459 68.2184C188.51 68.7563 188.625 69.1149 188.804 69.2942C189.009 69.4735 189.406 69.576 189.996 69.6016C190.738 69.6272 191.597 69.6529 192.57 69.6785C193.569 69.6785 194.581 69.6785 195.605 69.6785C196.656 69.6785 197.68 69.6785 198.679 69.6785C199.678 69.6529 200.549 69.6272 201.292 69.6016C201.881 69.576 202.265 69.4735 202.445 69.2942C202.65 69.1149 202.778 68.7563 202.829 68.2184C202.855 67.7317 202.867 67.3474 202.867 67.0657C202.893 66.7583 202.893 66.3612 202.867 65.8746C202.842 65.5928 202.778 65.4007 202.675 65.2982C202.598 65.1957 202.394 65.1317 202.061 65.1061C201.395 65.0549 200.472 65.0292 199.294 65.0292C198.141 65.0036 196.925 64.9908 195.644 64.9908C194.389 64.9908 193.172 65.0036 191.994 65.0292C190.815 65.0549 189.893 65.0805 189.227 65.1061C188.894 65.1317 188.676 65.1957 188.574 65.2982C188.497 65.4007 188.446 65.5928 188.42 65.8746Z" fill="#F5FAFF"/>
<path d="M36.6001 62.9996C36.6001 55.0467 43.0472 48.5996 51.0001 48.5996H79.2001C81.8511 48.5996 84.0001 50.7486 84.0001 53.3996V76.7996C84.0001 79.4506 81.8511 81.5996 79.2001 81.5996H41.4001C38.7491 81.5996 36.6001 79.4506 36.6001 76.7996V62.9996Z" fill="#242945"/>
<circle cx="10.8" cy="112.8" r="10.8" fill="#1B92FF"/>
</svg>
