<svg width="244" height="183" viewBox="0 0 244 183" fill="none" xmlns="http://www.w3.org/2000/svg">
<path d="M108.048 98.7815C157.718 80.6371 210.953 51.3395 247.2 25.9199L278.13 4.22885C280.675 2.44421 284.16 4.27498 284.16 7.38315V97.8371C284.16 99.0921 283.543 100.273 282.508 100.983C213.705 148.22 130.716 156.864 120.24 144.96C112.507 136.173 107.536 114.92 105.584 102.917C105.292 101.123 106.341 99.4051 108.048 98.7815Z" fill="#4DA9FF"/>
<rect x="12.9595" y="147.84" width="19.2" height="23.04" rx="7.68" fill="#242945"/>
<rect x="96.4795" y="147.84" width="19.2" height="23.04" rx="7.68" fill="#242945"/>
<rect x="-0.000488281" y="44.1602" width="128.64" height="115.2" rx="3.84" fill="#F96C44"/>
<rect x="5.2793" y="51.8398" width="118.08" height="46.0799" rx="3.84" fill="#F78956"/>
<rect x="5.2793" y="105.6" width="118.08" height="46.0799" rx="3.84" fill="#F78956"/>
<rect x="32.1597" y="82.0801" width="64.32" height="31.68" rx="1.92" fill="#F7C056"/>
<rect x="50.8794" y="125.279" width="26.88" height="7.67999" rx="1.92" fill="#F96C44"/>
<path fill-rule="evenodd" clip-rule="evenodd" d="M87.7256 140.159C75.7984 140.369 51.3752 143.925 41.8765 156.865C40.9119 158.445 40.0187 161.282 41.0905 163.956C36.7478 166.375 33.2192 170.693 39.0967 176.701C41.2057 178.856 49.417 179.78 61.0843 179.78C61.9232 179.945 62.8507 180.157 63.8638 180.388C72.7141 182.405 88.0973 185.911 108 173.108V155.041H103.438C103.327 154.735 103.146 154.446 102.891 154.194L89.3462 140.816C88.9133 140.389 88.3339 140.148 87.7256 140.159Z" fill="#F4C7A9"/>
<path d="M41.2803 163.68C44.1395 165.491 49.4403 168.96 64.3203 163.68" stroke="#ECB087" stroke-width="1.92"/>
<path d="M87.5396 137.002L95.3196 135.113C97.0423 134.695 98.8274 135.51 99.6392 137.086L117.083 170.952C118.129 172.981 117.183 175.479 115.018 176.201C107.227 178.798 102.099 179.212 99.5602 178.988C98.7036 178.912 97.9818 178.373 97.5 177.66C86.1176 160.832 84.9281 148.81 84.5967 140.89C84.5201 139.06 85.7606 137.433 87.5396 137.002Z" fill="#E9F4FF"/>
<path d="M96.0484 131.422C145.718 113.278 198.953 83.9802 235.2 58.5606L266.13 36.8695C268.675 35.0848 272.16 36.9156 272.16 40.0238V130.478C272.16 131.733 271.543 132.913 270.508 133.624C201.705 180.86 118.716 189.505 108.24 177.6C100.507 168.814 95.5362 147.561 93.5841 135.558C93.2923 133.764 94.3414 132.046 96.0484 131.422Z" fill="#1B92FF"/>
</svg>
