<svg width="160" height="160" viewBox="0 0 160 160" fill="none" xmlns="http://www.w3.org/2000/svg">
<rect width="160" height="160" rx="6" fill="#F6F6F6"/>
<path fill-rule="evenodd" clip-rule="evenodd" d="M86.6668 71.2497C85.5162 71.2497 84.5835 72.1824 84.5835 73.333C84.5835 74.4836 85.5162 75.4163 86.6668 75.4163C87.8174 75.4163 88.7502 74.4836 88.7502 73.333C88.7502 72.1824 87.8174 71.2497 86.6668 71.2497ZM82.0835 73.333C82.0835 70.8017 84.1355 68.7497 86.6668 68.7497C89.1981 68.7497 91.2502 70.8017 91.2502 73.333C91.2502 75.8643 89.1981 77.9163 86.6668 77.9163C84.1355 77.9163 82.0835 75.8643 82.0835 73.333Z" fill="#BBBBBB"/>
<path fill-rule="evenodd" clip-rule="evenodd" d="M79.9045 62.083H80.0958C83.9431 62.083 86.9582 62.083 89.3107 62.3993C91.7185 62.723 93.6186 63.3986 95.1099 64.8899C96.6013 66.3813 97.2769 68.2813 97.6006 70.6892C97.9169 73.0417 97.9169 76.0567 97.9168 79.9041V80.0953C97.9169 83.9426 97.9169 86.9577 97.6006 89.3102C97.2769 91.7181 96.6013 93.6181 95.1099 95.1094C93.6186 96.6008 91.7185 97.2764 89.3107 97.6001C86.9582 97.9164 83.9431 97.9164 80.0958 97.9163H79.9045C76.0572 97.9164 73.0422 97.9164 70.6897 97.6001C68.2818 97.2764 66.3817 96.6008 64.8904 95.1094C63.399 93.6181 62.7235 91.7181 62.3997 89.3102C62.0835 86.9577 62.0835 83.9426 62.0835 80.0953V79.904C62.0835 76.0567 62.0835 73.0417 62.3997 70.6892C62.7235 68.2813 63.399 66.3813 64.8904 64.8899C66.3817 63.3986 68.2818 62.723 70.6897 62.3993C73.0421 62.083 76.0572 62.083 79.9045 62.083ZM66.6582 93.3417C65.7087 92.3923 65.1639 91.1077 64.8774 88.977C64.6217 87.0745 64.5884 84.6472 64.5841 81.3999L67.0759 79.2196C68.0995 78.324 69.6421 78.3754 70.6038 79.3371L77.7533 86.4866C79.3282 88.0615 81.8073 88.2762 83.6296 86.9956L84.1266 86.6463C85.5569 85.6411 87.492 85.7576 88.7914 86.9271L94.164 91.7624C94.2224 91.815 94.2845 91.8611 94.3493 91.9007C94.0799 92.4688 93.748 92.9359 93.3422 93.3417C92.3927 94.2911 91.1082 94.8359 88.9775 95.1224C86.8109 95.4137 83.9639 95.4163 80.0002 95.4163C76.0365 95.4163 73.1894 95.4137 71.0228 95.1224C68.8921 94.8359 67.6076 94.2911 66.6582 93.3417ZM71.0228 64.877C68.8921 65.1634 67.6076 65.7082 66.6582 66.6577C65.7087 67.6071 65.1639 68.8916 64.8774 71.0223C64.6356 72.8215 64.5927 75.0898 64.5851 78.0771L65.4297 77.3381C67.4437 75.5759 70.4792 75.6769 72.3715 77.5693L79.5211 84.7188C80.2369 85.4347 81.3638 85.5323 82.1921 84.9502L82.6891 84.6009C85.0729 82.9256 88.2981 83.1197 90.4638 85.0688L95.0871 89.2298C95.0994 89.1469 95.1114 89.0626 95.1229 88.977C95.4142 86.8104 95.4168 83.9634 95.4168 79.9997C95.4168 76.036 95.4142 73.1889 95.1229 71.0223C94.8364 68.8916 94.2916 67.6071 93.3422 66.6577C92.3927 65.7082 91.1082 65.1634 88.9775 64.877C86.8109 64.5857 83.9639 64.583 80.0002 64.583C76.0365 64.583 73.1894 64.5857 71.0228 64.877Z" fill="#BBBBBB"/>
</svg>
