<svg width="32" height="32" viewBox="0 0 32 32" fill="none" xmlns="http://www.w3.org/2000/svg">
<path d="M27 4H5C3.34315 4 2 4.89543 2 6C2 7.10457 3.34315 8 5 8H27C28.6569 8 30 7.10457 30 6C30 4.89543 28.6569 4 27 4Z" fill="#373737"/>
<path d="M27 22H5C3.34315 22 2 22.8954 2 24C2 25.1046 3.34315 26 5 26H27C28.6569 26 30 25.1046 30 24C30 22.8954 28.6569 22 27 22Z" fill="#373737"/>
<path d="M27 13H5C3.34315 13 2 13.8954 2 15C2 16.1046 3.34315 17 5 17H27C28.6569 17 30 16.1046 30 15C30 13.8954 28.6569 13 27 13Z" fill="#373737"/>
</svg>
