<svg width="116" height="44" viewBox="0 0 116 44" fill="none" xmlns="http://www.w3.org/2000/svg">
<circle cx="19.9998" cy="19.3602" r="19.2" fill="#1B92FF"/>
<mask id="mask0_3180_18063" style="mask-type:alpha" maskUnits="userSpaceOnUse" x="20" y="0" width="20" height="44">
<rect width="19.2" height="43.68" transform="matrix(1 0 0 -1 20 43.8398)" fill="#D9D9D9"/>
</mask>
<g mask="url(#mask0_3180_18063)">
<path d="M0.800194 19.3602C0.800194 35.2002 20.0002 43.8402 20.0002 43.8402C20.0002 43.8402 39.2002 35.2002 39.2002 19.3602C39.2002 8.75629 30.6041 0.160156 20.0002 0.160156C9.39633 0.160156 0.800194 8.75629 0.800194 19.3602Z" fill="#1B92FF"/>
</g>
<rect x="24.8389" y="12.0703" width="5.376" height="14.592" rx="2.688" fill="#E9F4FF"/>
<rect x="15.5024" y="12.0977" width="5.376" height="14.592" rx="2.688" fill="#E9F4FF"/>
<rect opacity="0.8" x="18.1997" y="10.9727" width="5.376" height="18.4929" rx="2.688" transform="rotate(45.4799 18.1997 10.9727)" fill="#E9F4FF"/>
<rect opacity="0.8" x="31.2676" y="16.6387" width="5.30213" height="10.4446" rx="2.65107" transform="rotate(45.4799 31.2676 16.6387)" fill="#E9F4FF"/>
<rect opacity="0.8" x="27.5361" y="10.9453" width="5.43795" height="18.4261" rx="2.71897" transform="rotate(45.4799 27.5361 10.9453)" fill="#E9F4FF"/>
<path d="M87.3704 22.6567C86.6011 22.6301 85.9644 22.5506 85.4604 22.4179C84.9828 22.2587 84.5982 22.0465 84.3064 21.7812C84.0145 21.4894 83.8023 21.1313 83.6697 20.7068C83.5636 20.2558 83.4972 19.7252 83.4707 19.1151C83.4707 18.8763 83.4574 18.4917 83.4309 17.9611C83.4309 17.404 83.4309 16.7938 83.4309 16.1306C83.4309 15.4409 83.4176 14.7246 83.3911 13.9818C83.3911 13.239 83.3911 12.5227 83.3911 11.8329C83.3911 11.1432 83.3911 10.533 83.3911 10.0025C83.3911 9.47188 83.3911 9.07395 83.3911 8.80866C83.3911 7.8271 83.6564 7.09756 84.187 6.62004C84.7441 6.11599 85.4206 5.86397 86.2164 5.86397C87.0653 5.86397 87.7551 6.11599 88.2857 6.62004C88.8428 7.09756 89.1213 7.84036 89.1213 8.84846V10.4004C89.6254 10.4004 90.2223 10.4004 90.912 10.4004C91.6018 10.4004 92.3048 10.4004 93.0211 10.4004C93.7373 10.4004 94.4403 10.4004 95.1301 10.4004C95.8198 10.4004 96.4167 10.4004 96.9208 10.4004V8.60969C96.9208 7.68119 97.1993 6.99144 97.7564 6.54045C98.3135 6.08947 99.0033 5.86397 99.8257 5.86397C100.622 5.86397 101.298 6.0762 101.855 6.50066C102.412 6.92512 102.691 7.57508 102.691 8.45053C102.691 8.7954 102.691 9.47188 102.691 10.48C102.717 11.4615 102.731 12.5227 102.731 13.6634C102.731 14.8042 102.731 15.8918 102.731 16.9265C102.731 17.9346 102.717 18.6376 102.691 19.0355C102.664 19.6457 102.585 20.1762 102.452 20.6272C102.319 21.0517 102.094 21.4098 101.776 21.7016C101.457 21.9669 101.019 22.1792 100.462 22.3383C99.9053 22.4975 99.1757 22.5904 98.2738 22.6169C97.584 22.6699 96.7749 22.7097 95.8464 22.7363C94.9444 22.7363 94.0026 22.7495 93.0211 22.7761C92.066 22.7761 91.0977 22.7761 90.1162 22.7761C89.1346 22.7495 88.2193 22.7097 87.3704 22.6567ZM89.1213 17.1652C89.1479 17.5897 89.2274 17.8417 89.3601 17.9213C89.4927 18.0009 89.7845 18.0539 90.2355 18.0805C91.0845 18.107 91.9864 18.1203 92.9415 18.1203C93.8965 18.1203 94.7587 18.0937 95.528 18.0407C95.8198 18.0141 96.0586 18.0009 96.2443 18.0009C96.43 17.9744 96.5759 17.9478 96.682 17.9213C96.7881 17.8682 96.8545 17.7886 96.881 17.6825C96.9341 17.5499 96.9606 17.3775 96.9606 17.1652V14.7378C96.4565 14.7378 95.8596 14.7378 95.1699 14.7378C94.4801 14.7113 93.7639 14.698 93.0211 14.698C92.3048 14.698 91.6018 14.7113 90.912 14.7378C90.2223 14.7378 89.6254 14.7378 89.1213 14.7378V17.1652ZM94.1751 31.451C94.1751 30.2572 94.3873 29.1828 94.8117 28.2277C95.2627 27.2727 95.8729 26.4636 96.6422 25.8003C97.4381 25.1371 98.3931 24.6331 99.5073 24.2882C100.622 23.9433 101.855 23.7709 103.208 23.7709C104.455 23.7709 105.596 23.9433 106.63 24.2882C107.691 24.6331 108.593 25.1371 109.336 25.8003C110.106 26.4636 110.702 27.2727 111.127 28.2277C111.551 29.1562 111.764 30.2306 111.764 31.451C111.764 32.5386 111.565 33.5467 111.167 34.4752C110.795 35.4037 110.238 36.2129 109.495 36.9026C108.753 37.5924 107.851 38.1362 106.789 38.5341C105.755 38.9321 104.561 39.131 103.208 39.131C101.855 39.131 100.622 38.9321 99.5073 38.5341C98.4197 38.1362 97.4779 37.5924 96.682 36.9026C95.8862 36.2129 95.2627 35.4037 94.8117 34.4752C94.3873 33.5467 94.1751 32.5386 94.1751 31.451ZM100.064 31.3714C100.064 32.1407 100.343 32.7774 100.9 33.2814C101.457 33.759 102.187 33.9977 103.089 33.9977C104.017 33.9977 104.76 33.759 105.317 33.2814C105.901 32.7774 106.193 32.1407 106.193 31.3714C106.193 30.5225 105.914 29.8725 105.357 29.4215C104.8 28.944 104.044 28.7052 103.089 28.7052C102.187 28.7052 101.457 28.9307 100.9 29.3817C100.343 29.8062 100.064 30.4694 100.064 31.3714ZM108.222 8.25156C108.169 7.13735 108.381 6.30169 108.859 5.74459C109.363 5.16096 110.106 4.86914 111.087 4.86914C111.989 4.86914 112.719 5.14769 113.276 5.7048C113.859 6.23537 114.178 7.13735 114.231 8.41073C114.284 9.7637 114.31 10.9708 114.31 12.0319C114.337 13.0665 114.35 14.0481 114.35 14.9766C114.35 15.8786 114.337 16.7408 114.31 17.5632C114.31 18.3855 114.297 19.2345 114.271 20.1099C114.218 21.3833 113.939 22.3914 113.435 23.1342C112.931 23.877 112.175 24.2484 111.167 24.2484C110.159 24.2484 109.416 23.9566 108.938 23.373C108.487 22.7628 108.302 21.7812 108.381 20.4283C108.408 19.7385 108.421 18.9029 108.421 17.9213C108.448 16.9397 108.448 15.9051 108.421 14.8174C108.421 13.7032 108.394 12.5757 108.341 11.435C108.315 10.2943 108.275 9.23312 108.222 8.25156Z" fill="#1B92FF"/>
<path d="M65.1295 38.8927C64.3602 38.8927 63.6306 38.6274 62.9409 38.0969C62.2777 37.5663 61.9195 36.7837 61.8665 35.7491C61.8665 35.4307 61.8532 35.046 61.8267 34.5951C61.8267 34.1441 61.8134 33.6533 61.7869 33.1227C61.7869 32.5921 61.7869 32.035 61.7869 31.4514C61.7869 30.8678 61.7869 30.2841 61.7869 29.7005C59.8503 29.674 57.9667 29.6342 56.1363 29.5811C54.3323 29.5281 52.7008 29.4352 51.2417 29.3026C50.0214 29.1965 49.1725 28.9046 48.6949 28.4271C48.2174 27.9231 48.0052 27.2864 48.0583 26.517C48.1113 25.7477 48.3633 25.1243 48.8143 24.6468C49.2918 24.1427 50.1673 23.9172 51.4407 23.9703C53.5895 24.0499 55.8179 24.1162 58.1259 24.1693C60.4605 24.1958 62.7817 24.209 65.0897 24.209C67.4242 24.209 69.7323 24.1958 72.0137 24.1693C74.2952 24.1162 76.4706 24.0366 78.5398 23.9305C79.8928 23.8774 80.8345 24.1295 81.3651 24.6866C81.9222 25.2171 82.2008 25.8936 82.2008 26.716C82.2008 27.4853 81.9885 28.0822 81.5641 28.5067C81.1661 28.9046 80.4631 29.1567 79.455 29.2628C78.2878 29.3954 76.7358 29.5015 74.7992 29.5811C72.8892 29.6342 70.7934 29.674 68.5119 29.7005C68.4854 30.5494 68.4589 31.4249 68.4323 32.3269C68.4323 33.2023 68.4323 33.9982 68.4323 34.7144C68.4323 35.4307 68.3262 36.0409 68.114 36.5449C67.9283 37.0755 67.6763 37.5132 67.3579 37.8581C67.0661 38.203 66.7212 38.455 66.3233 38.6142C65.9254 38.7999 65.5274 38.8927 65.1295 38.8927ZM51.5998 16.1708C51.5998 15.1627 51.5998 14.3271 51.5998 13.6639C51.5998 13.0006 51.5998 12.4303 51.5998 11.9528C51.6264 11.4487 51.6396 10.9977 51.6396 10.5998C51.6662 10.2019 51.706 9.75087 51.759 9.24682C51.8386 8.37137 52.1172 7.72142 52.5947 7.29696C53.0722 6.84597 53.8548 6.60721 54.9425 6.58068C56.6138 6.55415 58.3249 6.52762 60.0758 6.5011C61.8532 6.47457 63.6174 6.4613 65.3683 6.4613C67.1192 6.43477 68.8303 6.43477 70.5016 6.4613C72.1729 6.4613 73.7514 6.5011 75.237 6.58068C76.3246 6.63374 77.1072 6.8725 77.5848 7.29696C78.0623 7.72142 78.3408 8.37137 78.4204 9.24682C78.447 9.75087 78.4735 10.2019 78.5 10.5998C78.5265 10.9977 78.5398 11.4487 78.5398 11.9528C78.5663 12.4303 78.5796 13.0006 78.5796 13.6639C78.5796 14.3271 78.5796 15.1627 78.5796 16.1708C78.5796 17.1259 78.5133 17.935 78.3806 18.5982C78.2745 19.2349 78.0358 19.7655 77.6644 20.1899C77.2929 20.5879 76.7624 20.893 76.0726 21.1052C75.3829 21.3174 74.4544 21.4633 73.2871 21.5429C72.279 21.596 71.0985 21.6358 69.7455 21.6623C68.3925 21.6888 66.9733 21.7021 65.4876 21.7021C64.002 21.7021 62.5032 21.6888 60.991 21.6623C59.5054 21.6358 58.1392 21.6092 56.8923 21.5827C55.7251 21.5562 54.7966 21.4368 54.1068 21.2246C53.4171 21.0123 52.8865 20.694 52.5151 20.2695C52.1437 19.8185 51.8917 19.2614 51.759 18.5982C51.6529 17.935 51.5998 17.1259 51.5998 16.1708ZM57.6086 12.5497C57.5821 13.0537 57.5688 13.4649 57.5688 13.7832C57.5953 14.0751 57.6219 14.473 57.6484 14.977C57.7015 15.5341 57.8208 15.9055 58.0065 16.0912C58.2188 16.2769 58.63 16.3831 59.2401 16.4096C60.0095 16.4361 60.8982 16.4626 61.9063 16.4892C62.9409 16.4892 63.9888 16.4892 65.0499 16.4892C66.1376 16.4892 67.1988 16.4892 68.2334 16.4892C69.268 16.4626 70.17 16.4361 70.9393 16.4096C71.5495 16.3831 71.9474 16.2769 72.1331 16.0912C72.3453 15.9055 72.478 15.5341 72.531 14.977C72.5576 14.473 72.5708 14.0751 72.5708 13.7832C72.5974 13.4649 72.5974 13.0537 72.5708 12.5497C72.5443 12.2578 72.478 12.0589 72.3719 11.9528C72.2923 11.8466 72.08 11.7803 71.7352 11.7538C71.0454 11.7007 70.0904 11.6742 68.8701 11.6742C67.6763 11.6477 66.4162 11.6344 65.0897 11.6344C63.7898 11.6344 62.5297 11.6477 61.3094 11.6742C60.089 11.7007 59.134 11.7273 58.4443 11.7538C58.0994 11.7803 57.8739 11.8466 57.7678 11.9528C57.6882 12.0589 57.6351 12.2578 57.6086 12.5497Z" fill="#1B92FF"/>
</svg>
