<svg width="29" height="34" viewBox="0 0 29 34" fill="none" xmlns="http://www.w3.org/2000/svg">
<circle cx="14.4" cy="15.0206" r="14.4" fill="#1B92FF"/>
<mask id="mask0_3243_7710" style="mask-type:alpha" maskUnits="userSpaceOnUse" x="14" y="0" width="15" height="34">
<rect width="14.4" height="32.76" transform="matrix(1 0 0 -1 14.3999 33.3799)" fill="#D9D9D9"/>
</mask>
<g mask="url(#mask0_3243_7710)">
<path d="M-9.53674e-05 15.0201C-9.53674e-05 26.9001 14.3999 33.3801 14.3999 33.3801C14.3999 33.3801 28.7999 26.9001 28.7999 15.0201C28.7999 7.06722 22.3528 0.620117 14.3999 0.620117C6.447 0.620117 -9.53674e-05 7.06722 -9.53674e-05 15.0201Z" fill="#1B92FF"/>
</g>
<rect x="18.0294" y="9.55176" width="4.032" height="10.944" rx="2.016" fill="#E9F4FF"/>
<rect x="11.0271" y="9.57227" width="4.032" height="10.944" rx="2.016" fill="#E9F4FF"/>
<rect opacity="0.8" x="13.0499" y="8.72852" width="4.032" height="13.8697" rx="2.016" transform="rotate(45.4799 13.0499 8.72852)" fill="#E9F4FF"/>
<rect opacity="0.8" x="22.8508" y="12.9785" width="3.9766" height="7.83348" rx="1.9883" transform="rotate(45.4799 22.8508 12.9785)" fill="#E9F4FF"/>
<rect opacity="0.8" x="20.0523" y="8.70801" width="4.07846" height="13.8196" rx="2.03923" transform="rotate(45.4799 20.0523 8.70801)" fill="#E9F4FF"/>
</svg>
